<mxfile host="app.diagrams.net" modified="2020-10-04T19:02:11.199Z" agent="5.0 (Windows NT 10.0; Win64; x64) AppleWebKit/537.36 (KHTML, like Gecko) Chrome/85.0.4183.121 Safari/537.36 Edg/85.0.564.68" etag="V_ftILbFI59Zf5vwaMoR" version="13.7.7" type="github">
  <diagram id="-9KD6dvE1f4aB_Tj2Z1s" name="Page-1">
    <mxGraphModel dx="1422" dy="804" grid="1" gridSize="10" guides="1" tooltips="1" connect="1" arrows="1" fold="1" page="1" pageScale="1" pageWidth="850" pageHeight="1100" math="0" shadow="0">
      <root>
        <mxCell id="0" />
        <mxCell id="1" parent="0" />
        <mxCell id="Sctk9gmRVoINfOoHWVKx-3" value="" style="edgeStyle=orthogonalEdgeStyle;rounded=0;orthogonalLoop=1;jettySize=auto;html=1;" edge="1" parent="1" source="Sctk9gmRVoINfOoHWVKx-1" target="Sctk9gmRVoINfOoHWVKx-2">
          <mxGeometry relative="1" as="geometry" />
        </mxCell>
        <mxCell id="Sctk9gmRVoINfOoHWVKx-1" value="Material App" style="rounded=1;whiteSpace=wrap;html=1;" vertex="1" parent="1">
          <mxGeometry x="410" y="100" width="120" height="40" as="geometry" />
        </mxCell>
        <mxCell id="Sctk9gmRVoINfOoHWVKx-5" value="" style="edgeStyle=orthogonalEdgeStyle;rounded=0;orthogonalLoop=1;jettySize=auto;html=1;" edge="1" parent="1" source="Sctk9gmRVoINfOoHWVKx-2" target="Sctk9gmRVoINfOoHWVKx-4">
          <mxGeometry relative="1" as="geometry" />
        </mxCell>
        <mxCell id="Sctk9gmRVoINfOoHWVKx-7" value="" style="edgeStyle=orthogonalEdgeStyle;rounded=0;orthogonalLoop=1;jettySize=auto;html=1;" edge="1" parent="1" source="Sctk9gmRVoINfOoHWVKx-2" target="Sctk9gmRVoINfOoHWVKx-6">
          <mxGeometry relative="1" as="geometry" />
        </mxCell>
        <mxCell id="Sctk9gmRVoINfOoHWVKx-9" value="" style="edgeStyle=orthogonalEdgeStyle;rounded=0;orthogonalLoop=1;jettySize=auto;html=1;" edge="1" parent="1" source="Sctk9gmRVoINfOoHWVKx-2" target="Sctk9gmRVoINfOoHWVKx-8">
          <mxGeometry relative="1" as="geometry" />
        </mxCell>
        <mxCell id="Sctk9gmRVoINfOoHWVKx-2" value="Scaffold" style="rounded=1;whiteSpace=wrap;html=1;" vertex="1" parent="1">
          <mxGeometry x="410" y="220" width="120" height="40" as="geometry" />
        </mxCell>
        <mxCell id="Sctk9gmRVoINfOoHWVKx-15" value="" style="edgeStyle=orthogonalEdgeStyle;rounded=0;orthogonalLoop=1;jettySize=auto;html=1;" edge="1" parent="1" source="Sctk9gmRVoINfOoHWVKx-4" target="Sctk9gmRVoINfOoHWVKx-14">
          <mxGeometry relative="1" as="geometry" />
        </mxCell>
        <mxCell id="Sctk9gmRVoINfOoHWVKx-4" value="Center" style="rounded=1;whiteSpace=wrap;html=1;" vertex="1" parent="1">
          <mxGeometry x="610" y="340" width="120" height="40" as="geometry" />
        </mxCell>
        <mxCell id="Sctk9gmRVoINfOoHWVKx-6" value="Color" style="rounded=1;whiteSpace=wrap;html=1;" vertex="1" parent="1">
          <mxGeometry x="90" y="340" width="120" height="40" as="geometry" />
        </mxCell>
        <mxCell id="Sctk9gmRVoINfOoHWVKx-19" value="" style="edgeStyle=orthogonalEdgeStyle;rounded=0;orthogonalLoop=1;jettySize=auto;html=1;" edge="1" parent="1" source="Sctk9gmRVoINfOoHWVKx-8" target="Sctk9gmRVoINfOoHWVKx-18">
          <mxGeometry relative="1" as="geometry" />
        </mxCell>
        <mxCell id="Sctk9gmRVoINfOoHWVKx-26" value="" style="edgeStyle=orthogonalEdgeStyle;rounded=0;orthogonalLoop=1;jettySize=auto;html=1;" edge="1" parent="1" source="Sctk9gmRVoINfOoHWVKx-8" target="Sctk9gmRVoINfOoHWVKx-25">
          <mxGeometry relative="1" as="geometry" />
        </mxCell>
        <mxCell id="Sctk9gmRVoINfOoHWVKx-8" value="AppBar" style="rounded=1;whiteSpace=wrap;html=1;" vertex="1" parent="1">
          <mxGeometry x="410" y="340" width="120" height="40" as="geometry" />
        </mxCell>
        <mxCell id="Sctk9gmRVoINfOoHWVKx-17" value="" style="edgeStyle=orthogonalEdgeStyle;rounded=0;orthogonalLoop=1;jettySize=auto;html=1;" edge="1" parent="1" source="Sctk9gmRVoINfOoHWVKx-14" target="Sctk9gmRVoINfOoHWVKx-16">
          <mxGeometry relative="1" as="geometry" />
        </mxCell>
        <mxCell id="Sctk9gmRVoINfOoHWVKx-14" value="Image" style="rounded=1;whiteSpace=wrap;html=1;" vertex="1" parent="1">
          <mxGeometry x="610" y="460" width="120" height="40" as="geometry" />
        </mxCell>
        <mxCell id="Sctk9gmRVoINfOoHWVKx-16" value="NetworkImage" style="rounded=1;whiteSpace=wrap;html=1;" vertex="1" parent="1">
          <mxGeometry x="610" y="580" width="120" height="40" as="geometry" />
        </mxCell>
        <mxCell id="Sctk9gmRVoINfOoHWVKx-18" value="Text" style="rounded=1;whiteSpace=wrap;html=1;" vertex="1" parent="1">
          <mxGeometry x="410" y="460" width="120" height="40" as="geometry" />
        </mxCell>
        <mxCell id="Sctk9gmRVoINfOoHWVKx-25" value="Color" style="rounded=1;whiteSpace=wrap;html=1;" vertex="1" parent="1">
          <mxGeometry x="240" y="460" width="120" height="40" as="geometry" />
        </mxCell>
      </root>
    </mxGraphModel>
  </diagram>
</mxfile>
